<?xml version="1.0" standalone="no"?>
<!DOCTYPE svg PUBLIC "-//W3C//DTD SVG 20010904//EN"
 "http://www.w3.org/TR/2001/REC-SVG-20010904/DTD/svg10.dtd">
<svg version="1.0" xmlns="http://www.w3.org/2000/svg"
 width="300.000000pt" height="169.000000pt" viewBox="0 0 300.000000 169.000000"
 preserveAspectRatio="xMidYMid meet">
<metadata>
Created by potrace 1.10, written by Peter Selinger 2001-2011
</metadata>
<g transform="translate(0.000000,169.000000) scale(0.100000,-0.100000)"
fill="#000000" stroke="none">
<path d="M2043 1573 l-143 -4 0 -122 0 -122 -120 3 -120 3 0 -150 0 -151 123
0 123 0 0 -120 -1 -120 148 0 147 0 0 120 0 120 125 0 125 0 0 150 0 150 -125
0 -125 0 0 125 c0 69 -3 124 -7 123 -5 -1 -72 -4 -150 -5z m128 -97 c1 -39 0
-85 -1 -103 -1 -20 6 -39 19 -52 19 -19 32 -21 124 -19 l102 1 3 -120 3 -121
-106 0 c-138 0 -141 -3 -139 -114 1 -46 0 -95 -3 -109 l-5 -26 -106 0 c-59 0
-112 1 -118 4 -6 2 -11 42 -11 104 -1 136 -3 138 -137 137 l-101 -1 -5 99 c-8
156 -16 144 104 144 66 0 108 4 119 13 14 10 17 30 18 117 0 57 3 108 5 112 3
4 56 7 119 6 l115 -2 1 -70z"/>
<path d="M890 1445 l0 -125 -123 0 -123 0 3 -146 3 -146 120 1 120 2 0 -125 0
-126 151 0 150 0 -3 125 -3 125 123 0 122 0 0 148 0 147 -125 -3 -125 -3 0
125 0 126 -145 0 -145 0 0 -125z m261 88 c1 -5 3 -53 5 -107 2 -69 8 -104 18
-114 10 -10 41 -14 119 -13 l106 1 3 -111 c2 -61 0 -116 -4 -122 -3 -6 -50
-12 -109 -13 -70 -2 -107 -7 -116 -17 -9 -9 -14 -44 -15 -118 l-1 -105 -119
-1 -118 -1 0 103 c0 142 9 136 -190 139 l-55 1 -2 118 c-1 103 1 117 15 118
10 1 58 2 108 3 109 2 130 15 119 72 -5 27 -3 34 6 28 7 -4 10 -3 5 4 -8 13
-15 130 -8 137 8 8 232 6 233 -2z"/>
<path d="M790 946 c0 -2 7 -7 16 -10 8 -3 12 -2 9 4 -6 10 -25 14 -25 6z"/>
<path d="M732 890 c0 -14 2 -19 5 -12 2 6 2 18 0 25 -3 6 -5 1 -5 -13z"/>
<path d="M1900 608 c-16 -85 -49 -145 -109 -201 -78 -73 -127 -92 -241 -92
-82 0 -103 4 -152 27 -106 50 -189 159 -204 271 l-7 47 -149 0 -150 0 6 -47
c19 -139 63 -248 140 -350 220 -291 654 -338 934 -101 139 118 231 301 232
461 l0 47 -144 0 -143 0 -13 -62z m-734 4 c34 -161 129 -269 274 -313 127 -38
267 -6 369 86 48 44 111 150 111 188 0 15 4 27 9 27 5 0 8 8 7 18 -1 15 12 17
122 19 l123 3 -6 -48 c-35 -258 -213 -466 -458 -537 -61 -18 -202 -24 -273
-13 -263 43 -496 286 -518 540 -2 24 -2 45 -1 48 2 3 56 6 119 7 l116 2 6 -27z"/>
<path d="M2280 541 c0 -5 6 -14 14 -20 12 -10 13 -8 9 8 -5 21 -23 30 -23 12z"/>
<path d="M2280 500 c0 -5 5 -10 11 -10 5 0 7 5 4 10 -3 6 -8 10 -11 10 -2 0
-4 -4 -4 -10z"/>
<path d="M2220 490 c0 -5 5 -10 11 -10 5 0 7 5 4 10 -3 6 -8 10 -11 10 -2 0
-4 -4 -4 -10z"/>
<path d="M2210 440 c8 -5 20 -10 25 -10 6 0 3 5 -5 10 -8 5 -19 10 -25 10 -5
0 -3 -5 5 -10z"/>
<path d="M2691 324 c0 -11 3 -14 6 -6 3 7 2 16 -1 19 -3 4 -6 -2 -5 -13z"/>
<path d="M2460 79 c0 -5 5 -7 10 -4 6 3 10 8 10 11 0 2 -4 4 -10 4 -5 0 -10
-5 -10 -11z"/>
<path d="M830 63 c0 -4 5 -15 10 -23 8 -13 10 -13 10 2 0 9 -4 20 -10 23 -5 3
-10 3 -10 -2z"/>
</g>
</svg>
